<svg width="243" height="76" viewBox="0 0 243 76" fill="none" xmlns="http://www.w3.org/2000/svg">
<rect width="50.2859" height="17.0613" rx="7" transform="matrix(0.705919 -0.708293 0.705919 0.708293 0 59.2281)" fill="#BFBFBF"/>
<rect width="50.2859" height="17.0613" rx="7" transform="matrix(0.705919 0.708293 -0.705919 0.708293 12.0439 0)" fill="#303030"/>
<path d="M58 25.4866C58 23.0766 58.509 20.9332 59.5269 19.0561C60.5449 17.156 61.9587 15.6845 63.7684 14.6417C65.6007 13.5758 67.6705 13.0428 69.9778 13.0428C72.8054 13.0428 75.2259 13.8075 77.2392 15.3369C79.2524 16.8663 80.5984 18.9519 81.277 21.5936H74.8979C74.4228 20.574 73.7442 19.7977 72.862 19.2647C72.0024 18.7317 71.0184 18.4652 69.91 18.4652C68.1229 18.4652 66.6751 19.1025 65.5667 20.377C64.4583 21.6515 63.9041 23.3547 63.9041 25.4866C63.9041 27.6185 64.4583 29.3217 65.5667 30.5963C66.6751 31.8708 68.1229 32.508 69.91 32.508C71.0184 32.508 72.0024 32.2415 72.862 31.7086C73.7442 31.1756 74.4228 30.3993 74.8979 29.3797H81.277C80.5984 32.0214 79.2524 34.107 77.2392 35.6364C75.2259 37.1426 72.8054 37.8957 69.9778 37.8957C67.6705 37.8957 65.6007 37.3743 63.7684 36.3316C61.9587 35.2656 60.5449 33.7941 59.5269 31.9171C58.509 30.0401 58 27.8966 58 25.4866Z" fill="black"/>
<path d="M93.4489 38C91.5939 38 89.92 37.5945 88.427 36.7834C86.9566 35.9724 85.7917 34.8137 84.9321 33.3075C84.0951 31.8012 83.6766 30.0401 83.6766 28.0241C83.6766 26.0312 84.1064 24.2816 84.966 22.7754C85.8256 21.246 87.0019 20.0758 88.4949 19.2647C89.9878 18.4537 91.6618 18.0481 93.5167 18.0481C95.3716 18.0481 97.0456 18.4537 98.5386 19.2647C100.032 20.0758 101.208 21.246 102.067 22.7754C102.927 24.2816 103.357 26.0312 103.357 28.0241C103.357 30.0169 102.916 31.7781 102.034 33.3075C101.174 34.8137 99.9863 35.9724 98.4707 36.7834C96.9777 37.5945 95.3038 38 93.4489 38ZM93.4489 32.8556C94.5573 32.8556 95.4961 32.4385 96.2652 31.6043C97.0569 30.7701 97.4528 29.5766 97.4528 28.0241C97.4528 26.4715 97.0682 25.2781 96.2991 24.4438C95.5526 23.6096 94.6251 23.1925 93.5167 23.1925C92.3857 23.1925 91.4469 23.6096 90.7004 24.4438C89.9539 25.2549 89.5807 26.4483 89.5807 28.0241C89.5807 29.5766 89.9426 30.7701 90.6665 31.6043C91.413 32.4385 92.3404 32.8556 93.4489 32.8556Z" fill="black"/>
<path d="M130.594 18.1176C132.947 18.1176 134.813 18.8476 136.193 20.3075C137.595 21.7674 138.297 23.795 138.297 26.3904V37.7219H132.528V27.1898C132.528 25.9385 132.2 24.9768 131.544 24.3048C130.911 23.6096 130.029 23.262 128.898 23.262C127.767 23.262 126.873 23.6096 126.217 24.3048C125.584 24.9768 125.267 25.9385 125.267 27.1898V37.7219H119.499V27.1898C119.499 25.9385 119.171 24.9768 118.515 24.3048C117.881 23.6096 116.999 23.262 115.868 23.262C114.737 23.262 113.843 23.6096 113.187 24.3048C112.554 24.9768 112.237 25.9385 112.237 27.1898V37.7219H106.435V18.3262H112.237V20.7594C112.825 19.9483 113.595 19.3111 114.545 18.8476C115.495 18.361 116.569 18.1176 117.768 18.1176C119.193 18.1176 120.46 18.4305 121.569 19.0561C122.7 19.6818 123.582 20.574 124.215 21.7326C124.871 20.6667 125.765 19.7977 126.896 19.1257C128.027 18.4537 129.26 18.1176 130.594 18.1176Z" fill="black"/>
<path d="M166.514 18.1176C168.867 18.1176 170.733 18.8476 172.113 20.3075C173.515 21.7674 174.216 23.795 174.216 26.3904V37.7219H168.448V27.1898C168.448 25.9385 168.12 24.9768 167.464 24.3048C166.831 23.6096 165.948 23.262 164.817 23.262C163.686 23.262 162.793 23.6096 162.137 24.3048C161.503 24.9768 161.187 25.9385 161.187 27.1898V37.7219H155.418V27.1898C155.418 25.9385 155.09 24.9768 154.434 24.3048C153.801 23.6096 152.919 23.262 151.788 23.262C150.657 23.262 149.763 23.6096 149.107 24.3048C148.474 24.9768 148.157 25.9385 148.157 27.1898V37.7219H142.355V18.3262H148.157V20.7594C148.745 19.9483 149.514 19.3111 150.464 18.8476C151.414 18.361 152.489 18.1176 153.688 18.1176C155.113 18.1176 156.38 18.4305 157.488 19.0561C158.619 19.6818 159.501 20.574 160.135 21.7326C160.791 20.6667 161.684 19.7977 162.815 19.1257C163.946 18.4537 165.179 18.1176 166.514 18.1176Z" fill="black"/>
<path d="M177.121 27.9893C177.121 25.9964 177.483 24.2469 178.207 22.7406C178.953 21.2344 179.96 20.0758 181.226 19.2647C182.493 18.4537 183.907 18.0481 185.468 18.0481C186.802 18.0481 187.967 18.3262 188.963 18.8824C189.981 19.4385 190.761 20.1684 191.304 21.0722V18.3262H197.106V37.7219H191.304V34.9759C190.739 35.8797 189.947 36.6096 188.929 37.1658C187.934 37.7219 186.769 38 185.434 38C183.896 38 182.493 37.5945 181.226 36.7834C179.96 35.9492 178.953 34.779 178.207 33.2727C177.483 31.7433 177.121 29.9822 177.121 27.9893ZM191.304 28.0241C191.304 26.541 190.897 25.3708 190.083 24.5134C189.291 23.656 188.318 23.2273 187.164 23.2273C186.011 23.2273 185.027 23.656 184.212 24.5134C183.421 25.3476 183.025 26.5062 183.025 27.9893C183.025 29.4724 183.421 30.6542 184.212 31.5348C185.027 32.3922 186.011 32.8209 187.164 32.8209C188.318 32.8209 189.291 32.3922 190.083 31.5348C190.897 30.6774 191.304 29.5071 191.304 28.0241Z" fill="black"/>
<path d="M212.841 18.1176C215.058 18.1176 216.822 18.8592 218.134 20.3422C219.469 21.8021 220.136 23.8182 220.136 26.3904V37.7219H214.368V27.1898C214.368 25.8922 214.04 24.8841 213.384 24.1658C212.728 23.4474 211.845 23.0882 210.737 23.0882C209.629 23.0882 208.746 23.4474 208.09 24.1658C207.434 24.8841 207.106 25.8922 207.106 27.1898V37.7219H201.304V18.3262H207.106V20.8984C207.694 20.041 208.486 19.369 209.482 18.8824C210.477 18.3725 211.597 18.1176 212.841 18.1176Z" fill="black"/>
<path d="M223.014 27.9893C223.014 25.9964 223.376 24.2469 224.1 22.7406C224.847 21.2344 225.853 20.0758 227.12 19.2647C228.387 18.4537 229.801 18.0481 231.362 18.0481C232.606 18.0481 233.737 18.3146 234.755 18.8476C235.795 19.3806 236.61 20.0989 237.198 21.0027V12H243V37.7219H237.198V34.9412C236.655 35.8681 235.874 36.6096 234.856 37.1658C233.861 37.7219 232.696 38 231.362 38C229.801 38 228.387 37.5945 227.12 36.7834C225.853 35.9492 224.847 34.779 224.1 33.2727C223.376 31.7433 223.014 29.9822 223.014 27.9893ZM237.198 28.0241C237.198 26.541 236.791 25.3708 235.976 24.5134C235.184 23.656 234.212 23.2273 233.058 23.2273C231.904 23.2273 230.92 23.656 230.106 24.5134C229.314 25.3476 228.918 26.5062 228.918 27.9893C228.918 29.4724 229.314 30.6542 230.106 31.5348C230.92 32.3922 231.904 32.8209 233.058 32.8209C234.212 32.8209 235.184 32.3922 235.976 31.5348C236.791 30.6774 237.198 29.5071 237.198 28.0241Z" fill="black"/>
<path d="M67.3074 72.1391C65.5637 72.1391 64.0011 71.8593 62.6197 71.2998C61.2384 70.7402 60.1287 69.9121 59.2908 68.8153C58.4756 67.7186 58.0453 66.3981 58 64.8537H64.1823C64.2729 65.7266 64.5786 66.3981 65.0995 66.8681C65.6203 67.3158 66.2997 67.5396 67.1376 67.5396C67.9981 67.5396 68.6775 67.3493 69.1757 66.9688C69.6739 66.5659 69.923 66.0176 69.923 65.3237C69.923 64.7418 69.7192 64.2606 69.3116 63.8801C68.9266 63.4996 68.4397 63.1863 67.8509 62.94C67.2848 62.6938 66.4695 62.4141 65.4052 62.1007C63.8653 61.6307 62.6084 61.1607 61.6347 60.6906C60.6609 60.2206 59.823 59.5268 59.121 58.6091C58.4189 57.6914 58.0679 56.494 58.0679 55.0168C58.0679 52.8233 58.8719 51.1111 60.4797 49.8801C62.0876 48.6267 64.1823 48 66.7639 48C69.3909 48 71.5082 48.6267 73.1161 49.8801C74.7239 51.1111 75.5845 52.8345 75.6977 55.0504H69.4135C69.3682 54.2894 69.0851 53.6962 68.5643 53.271C68.0434 52.8233 67.3754 52.5995 66.5601 52.5995C65.8581 52.5995 65.292 52.7898 64.8617 53.1703C64.4314 53.5284 64.2163 54.0544 64.2163 54.7482C64.2163 55.5092 64.5786 56.1023 65.3033 56.5276C66.0279 56.9528 67.1602 57.4117 68.7002 57.9041C70.2401 58.4189 71.4856 58.9113 72.4367 59.3813C73.4105 59.8513 74.2484 60.534 74.9504 61.4293C75.6524 62.3245 76.0034 63.4772 76.0034 64.8873C76.0034 66.2302 75.6524 67.45 74.9504 68.5468C74.271 69.6435 73.2746 70.5164 71.9612 71.1655C70.6477 71.8145 69.0965 72.1391 67.3074 72.1391Z" fill="#BFBFBF"/>
<path d="M90.1424 67.036V71.9041H87.1871C85.0811 71.9041 83.4392 71.4005 82.2616 70.3933C81.0841 69.3637 80.4953 67.6962 80.4953 65.3909V57.9377H78.1854V53.1703H80.4953V48.6043H86.3039V53.1703H90.1084V57.9377H86.3039V65.458C86.3039 66.0176 86.4398 66.4205 86.7116 66.6667C86.9833 66.9129 87.4362 67.036 88.0703 67.036H90.1424Z" fill="#BFBFBF"/>
<path d="M102.006 72.1727C100.149 72.1727 98.4732 71.781 96.9786 70.9976C95.5066 70.2142 94.3404 69.0951 93.4798 67.6403C92.6419 66.1855 92.223 64.4844 92.223 62.5372C92.223 60.6123 92.6532 58.9225 93.5138 57.4676C94.3743 55.9904 95.5519 54.8601 97.0465 54.0767C98.5412 53.2934 100.217 52.9017 102.074 52.9017C103.931 52.9017 105.607 53.2934 107.101 54.0767C108.596 54.8601 109.773 55.9904 110.634 57.4676C111.495 58.9225 111.925 60.6123 111.925 62.5372C111.925 64.462 111.483 66.1631 110.6 67.6403C109.74 69.0951 108.551 70.2142 107.033 70.9976C105.539 71.781 103.863 72.1727 102.006 72.1727ZM102.006 67.2038C103.116 67.2038 104.055 66.801 104.825 65.9952C105.618 65.1894 106.014 64.0368 106.014 62.5372C106.014 61.0376 105.629 59.8849 104.859 59.0791C104.112 58.2734 103.184 57.8705 102.074 57.8705C100.942 57.8705 100.002 58.2734 99.2545 59.0791C98.5072 59.8625 98.1335 61.0152 98.1335 62.5372C98.1335 64.0368 98.4959 65.1894 99.2205 65.9952C99.9679 66.801 100.896 67.2038 102.006 67.2038Z" fill="#BFBFBF"/>
<path d="M120.815 56.2926C121.494 55.263 122.344 54.4572 123.363 53.8753C124.382 53.271 125.514 52.9688 126.76 52.9688V59.0456H125.163C123.714 59.0456 122.627 59.3589 121.902 59.9856C121.177 60.5899 120.815 61.6643 120.815 63.2086V71.9041H115.006V53.1703H120.815V56.2926Z" fill="#BFBFBF"/>
<path d="M147.404 62.235C147.404 62.7722 147.37 63.3317 147.302 63.9137H134.156C134.246 65.0775 134.62 65.9728 135.277 66.5995C135.956 67.2038 136.783 67.506 137.756 67.506C139.206 67.506 140.214 66.9017 140.78 65.693H146.962C146.645 66.9241 146.068 68.032 145.23 69.0168C144.414 70.0016 143.384 70.7738 142.138 71.3333C140.893 71.8929 139.5 72.1727 137.96 72.1727C136.103 72.1727 134.45 71.781 133.001 70.9976C131.552 70.2142 130.419 69.0951 129.604 67.6403C128.789 66.1855 128.381 64.4844 128.381 62.5372C128.381 60.5899 128.777 58.8889 129.57 57.4341C130.385 55.9792 131.518 54.8601 132.967 54.0767C134.416 53.2934 136.081 52.9017 137.96 52.9017C139.795 52.9017 141.425 53.2822 142.852 54.0432C144.278 54.8042 145.388 55.8897 146.181 57.2998C146.996 58.7098 147.404 60.3549 147.404 62.235ZM141.459 60.7242C141.459 59.7394 141.119 58.956 140.44 58.3741C139.761 57.7922 138.911 57.5012 137.892 57.5012C136.919 57.5012 136.092 57.781 135.413 58.3405C134.756 58.9001 134.348 59.6946 134.19 60.7242H141.459Z" fill="#BFBFBF"/>
<path d="M170 73.1799V76H151.929V73.1799H170Z" fill="#BFBFBF"/>
</svg>
